Coordinates
version=1
nRows=5
nColumns=107
inDegrees=yes

Units are S.I. units (second, meters, Newtons, ...)
If the header above contains a line with 'inDegrees', this indicates whether rotational values are in degrees (yes) or radians (no).

endheader
time	sternoclavicular_r2	sternoclavicular_r3	unrotscap_r3	unrotscap_r2	acromioclavicular_r2	acromioclavicular_r3	acromioclavicular_r1	unrothum_r1	unrothum_r3	unrothum_r2	elv_angle	shoulder_elv	shoulder1_r2	shoulder_rot	elbow_flexion	pro_sup	deviation	flexion	proximal_distal_r1	proximal_distal_r3	cmc_flexion	cmc_abduction	mp_flexion	ip_flexion	mcp2_flexion	mcp2_abduction	pm2_flexion	md2_flexion	mcp3_flexion	mcp3_abduction	pm3_flexion	md3_flexion	mcp4_flexion	mcp4_abduction	pm4_flexion	md4_flexion	mcp5_flexion	mcp5_abduction	pm5_flexion	md5_flexion	bicpt_tx	bicpt_ty	bicpt_tz	bicpt2_tx	bicpt2_ty	bicpt2_tz	ptpt_tx	ptpt_ty	ptpt_tz	FCUpt_tx	FCUpt_ty	FCUpt_tz	EDCpt_tx	EDCpt_ty	EDCpt_tz	APLpt_tx	APLpt_ty	APLpt_tz	FPLpt_tx	FPLpt_ty	FPLpt_tz	FPLpt2_tx	FPLpt2_ty	FPLpt2_tz	PEC1pt2_tx	PEC1pt2_ty	PEC1pt2_tz	PEC1pt3_tx	PEC1pt3_ty	PEC1pt3_tz	PEC2pt2_tx	PEC2pt2_ty	PEC2pt2_tz	PEC2pt3_tx	PEC2pt3_ty	PEC2pt3_tz	PEC3pt2_tx	PEC3pt2_ty	PEC3pt2_tz	PEC3pt3_tx	PEC3pt3_ty	PEC3pt3_tz	DELT2pt2a_tx	DELT2pt2a_ty	DELT2pt2a_tz	DELT2pt2_tx	DELT2pt2_ty	DELT2pt2_tz	LAT1pt2_tx	LAT1pt2_ty	LAT1pt2_tz	LAT1pt3_tx	LAT1pt3_ty	LAT1pt3_tz	LAT2pt2_tx	LAT2pt2_ty	LAT2pt2_tz	LAT2pt3_tx	LAT2pt3_ty	LAT2pt3_tz	LAT3pt2_tx	LAT3pt2_ty	LAT3pt2_tz	LAT3pt3_tx	LAT3pt3_ty	LAT3pt3_tz
      0.80000000	     -0.32626048	      0.13818854	     -0.13818854	      0.32626048	     -0.06606111	      0.53388266	      0.23997658	     -0.23997658	     -0.53388266	      0.06606111	     98.78273253	     77.24506897	     -1.72408393	    -20.52850039	     28.89347034	     44.07561223	      0.15452466	     -0.06746468	      0.19016750	     -0.03373234	     34.58909582	    -18.83023695	      4.64780723	     13.14047447	     -4.42042424	      9.04721160	     13.84933630	    -24.45119573	     -4.88901674	     -1.39052772	      6.37602781	      9.53483096	     -8.23641330	     -4.40817837	    -12.03325923	     19.48068741	    -26.03439882	    -13.53722321	      3.17331705	      5.07554379	      0.00085571	     -0.03091163	     -0.00483342	      0.01656302	     -0.01804905	     -0.00702331	      0.00429331	     -0.06700583	     -0.00360053	      0.00819313	     -0.18340792	     -0.00040910	     -0.00528906	      0.00154860	      0.00011266	      0.00006521	      0.00002609	      0.00013043	      0.00008347	      0.00025042	      0.00014086	     -0.00001260	     -0.00020006	     -0.00024007	      0.00253192	      0.00888319	      0.00617961	     -0.00828239	      0.01999791	     -0.01896797	      0.00253192	      0.00888319	      0.00617961	      0.00055788	      0.01853883	     -0.00974147	      0.00398854	      0.00493983	      0.01606603	      0.00000000	      0.00798138	      0.00000000	     -0.00725246	     -0.03351581	     -0.00658212	      0.01407936	     -0.00044822	     -0.00348385	     -0.00090119	      0.01510572	     -0.00617961	      0.00248901	      0.02180029	     -0.01802386	     -0.00605087	      0.01308876	     -0.00553590	     -0.01261671	      0.02763659	     -0.03094097	     -0.02368851	      0.01463366	     -0.00742412	     -0.01570651	      0.03192799	     -0.03866548
      0.83333333	     -0.32641305	      0.13825316	     -0.13825316	      0.32641305	     -0.06609200	      0.53413232	      0.24008880	     -0.24008880	     -0.53413232	      0.06609200	     98.75637633	     77.28119105	     -1.72362392	    -20.24675424	     28.84235419	     44.25287968	      0.16618452	     -0.06409211	      0.20293093	     -0.03204605	     33.71898596	    -18.46148906	      5.46293596	     11.79369640	     -4.18176893	      9.04418897	     14.71858169	    -25.68931072	     -4.25167924	     -1.32810304	      6.14676866	      9.83770148	     -7.58872908	     -4.46451612	    -12.18862285	     21.56908960	    -25.38349529	    -13.60683611	      4.07653027	      5.03187157	      0.00085402	     -0.03090577	     -0.00483247	      0.01656167	     -0.01803517	     -0.00700336	      0.00428021	     -0.06701430	     -0.00361481	      0.00821120	     -0.18340403	     -0.00040980	     -0.00531033	      0.00155604	      0.00011099	      0.00006214	      0.00002485	      0.00012427	      0.00007953	      0.00023860	      0.00013421	     -0.00001219	     -0.00021133	     -0.00025359	      0.00253311	      0.00888734	      0.00618250	     -0.00828627	      0.02000726	     -0.01897684	      0.00253311	      0.00888734	      0.00618250	      0.00055814	      0.01854750	     -0.00974603	      0.00398989	      0.00494214	      0.01606928	      0.00000000	      0.00798890	      0.00000000	     -0.00725585	     -0.03353148	     -0.00658837	      0.01391824	     -0.00043953	     -0.00338432	     -0.00090161	      0.01511278	     -0.00618250	      0.00249017	      0.02181049	     -0.01803229	     -0.00605370	      0.01309488	     -0.00553849	     -0.01262261	      0.02764952	     -0.03095544	     -0.02369959	      0.01464050	     -0.00742759	     -0.01571386	      0.03194292	     -0.03868356
      0.86666667	     -0.32660399	      0.13833403	     -0.13833403	      0.32660399	     -0.06613066	      0.53444476	      0.24022924	     -0.24022924	     -0.53444476	      0.06613066	     98.70139250	     77.32639705	     -1.72266428	    -19.95614357	     28.82320940	     44.39912093	      0.18077555	     -0.05906049	      0.21858986	     -0.02953024	     32.43467275	    -18.31348751	      4.77924745	     10.80692893	     -3.15545550	      8.60787578	     15.64258299	    -26.44201084	     -3.11430366	     -1.38972122	      6.29934710	     10.26962949	     -6.62185290	     -4.70100821	    -11.65252581	     22.81532258	    -24.38698204	    -13.68865421	      4.69302929	      5.04557711	      0.00085338	     -0.03090358	     -0.00483212	      0.01656049	     -0.01802997	     -0.00698685	      0.00426941	     -0.06702129	     -0.00362659	      0.00822612	     -0.18340080	     -0.00041036	     -0.00532788	      0.00156218	      0.00010960	      0.00005751	      0.00002300	      0.00011502	      0.00007361	      0.00022083	      0.00012422	     -0.00001127	     -0.00022643	     -0.00027172	      0.00253459	      0.00889254	      0.00618612	     -0.00829112	      0.02001896	     -0.01898794	      0.00253459	      0.00889254	      0.00618612	      0.00055847	      0.01855835	     -0.00975173	      0.00399158	      0.00494503	      0.01607334	      0.00000000	      0.00799832	      0.00000000	     -0.00726010	     -0.03355109	     -0.00659618	      0.01375117	     -0.00043058	     -0.00328270	     -0.00090214	      0.01512162	     -0.00618612	      0.00249163	      0.02182325	     -0.01804284	     -0.00605724	      0.01310254	     -0.00554173	     -0.01262999	      0.02766569	     -0.03097354	     -0.02371345	      0.01464907	     -0.00743193	     -0.01572305	      0.03196160	     -0.03870619
      0.90000000	     -0.32655836	      0.13831471	     -0.13831471	      0.32655836	     -0.06612142	      0.53437010	      0.24019568	     -0.24019568	     -0.53437010	      0.06612142	     98.58774475	     77.31559389	     -1.72068075	    -20.08543148	     29.04024316	     44.76715802	      0.18526797	     -0.04932506	      0.22334093	     -0.02466253	     30.22754982	    -18.22662326	      3.16179403	     10.52761380	     -2.40799203	      7.55722312	     16.29187390	    -26.12412151	     -2.43410115	     -1.69018198	      6.88503054	     10.39515537	     -5.97272754	     -5.05508219	    -11.13936970	     22.75856890	    -23.90858624	    -13.72171470	      4.87616468	      5.10932215	      0.00086056	     -0.03092846	     -0.00483613	      0.01655732	     -0.01808892	     -0.00694520	      0.00424221	     -0.06703887	     -0.00365623	      0.00826370	     -0.18339267	     -0.00041170	     -0.00537205	      0.00157767	      0.00010604	      0.00004844	      0.00001937	      0.00009687	      0.00006200	      0.00018599	      0.00010462	     -0.00000886	     -0.00024816	     -0.00029779	      0.00253424	      0.00889130	      0.00618525	     -0.00828996	      0.02001617	     -0.01898529	      0.00253424	      0.00889130	      0.00618525	      0.00055839	      0.01855576	     -0.00975036	      0.00399118	      0.00494434	      0.01607237	      0.00000000	      0.00799607	      0.00000000	     -0.00725908	     -0.03354641	     -0.00659431	      0.01382550	     -0.00043456	     -0.00332790	     -0.00090202	      0.01511951	     -0.00618525	      0.00249128	      0.02182020	     -0.01804032	     -0.00605639	      0.01310071	     -0.00554096	     -0.01262822	      0.02766182	     -0.03096922	     -0.02371014	      0.01464702	     -0.00743089	     -0.01572085	      0.03195714	     -0.03870078
      0.93333333	     -0.32521625	      0.13774625	     -0.13774625	      0.32521625	     -0.06584967	      0.53217391	      0.23920851	     -0.23920851	     -0.53217391	      0.06584967	     98.79022497	     76.99783720	     -1.72421469	    -21.30242097	     29.21189538	     47.34384130	      0.22520526	     -0.02225389	      0.26412280	     -0.01112695	     29.48516630	    -17.26662513	     -1.17768491	     11.27733852	      0.29978203	      7.57073954	     17.47280753	    -24.47573164	      0.82622920	     -1.19973090	      7.37169558	     10.51007708	     -3.50227105	     -5.11324458	     -7.04641334	     21.83226237	    -20.02175309	    -13.80976635	      5.86908092	      5.09978140	      0.00086624	     -0.03094813	     -0.00483930	      0.01652648	     -0.01813555	     -0.00664828	      0.00405182	     -0.06716198	     -0.00386380	      0.00852792	     -0.18333464	     -0.00041826	     -0.00568125	      0.00168730	      0.00007909	      0.00002236	      0.00000894	      0.00004472	      0.00002862	      0.00008587	      0.00004830	     -0.00000782	     -0.00025415	     -0.00030498	      0.00252382	      0.00885476	      0.00615983	     -0.00825589	      0.01993390	     -0.01890726	      0.00252382	      0.00885476	      0.00615983	      0.00055610	      0.01847950	     -0.00971029	      0.00397927	      0.00492402	      0.01604371	      0.00000000	      0.00793000	      0.00000000	     -0.00722925	     -0.03340853	     -0.00653948	      0.01451648	     -0.00047227	     -0.00376357	     -0.00089831	      0.01505737	     -0.00615983	      0.00248104	      0.02173052	     -0.01796618	     -0.00603150	      0.01304687	     -0.00551818	     -0.01257632	      0.02754814	     -0.03084194	     -0.02361269	      0.01458682	     -0.00740035	     -0.01565624	      0.03182580	     -0.03854173
